<?xml version="1.0" encoding="UTF-8"?>
<svg id="Layer_1" data-name="Layer 1" xmlns="http://www.w3.org/2000/svg" viewBox="0 0 244.8 244.8">
  <g>
    <path d="M124.16,179.54c-.28-.58-.32-1.23-.33-1.86-1.18-26.91,1.63-55.25.04-81.99-.94-15.69-9.42-22.98-23.92-13.78l-5.93,7c-3.13-14.81-17.61-13.37-26.11-3.51-.74.86-1.12,2.07-1.97,2.63l-.54.63c-1.11-4.38-3.45-8.08-8.3-9.71-7.67-2.58-15.79-.03-21.16,5.8l5.16-2.29c13.46-3.71,19.71,4.54,15.64,16.66-.16.49-.35.99-.54,1.49-7.1,17.96-27.8,48.34-25.91,66.92.97,9.56,8.22,17.11,18.28,13.98,4.08-1.27,6.27-4.01,9.31-6.7v6.14h11.41c-1.6-1.78-3.02-3.8-3.09-6.34-1.35-26.33,1.87-54.55.01-80.65-.08-1.15-.21-2.3-.4-3.41l.16-.08c7.14-10.9,19.43-12.63,20.61,3.47,1.99,27.03-1.54,56.46,0,83.74-.01.63-.05,1.28-.33,1.86-.45.9-1.36.66-1.44,1.41h11.41l-1.34-3.27c-.24-27.62.39-55.26.04-82.87-.04-3.25-1.4-3.25,1.07-6.34,3.02-3.77,7.27-6.59,12.31-6.15,5.84.5,6.91,7.34,7.23,12.05,1.85,27.01-1.44,56.08,0,83.31-.01.63-.05,1.28-.33,1.86-.45.9-1.36.66-1.44,1.41h11.85c-.08-.75-.99-.51-1.44-1.41ZM57.87,171.96c-.41,1.88-4.99,3.91-6.85,4.11-17.29,1.92-13.64-28.9-9.27-38.62l16.12-36.27v70.78Z"/>
    <path d="M194.91,96.56c-1.11-18.65-13.67-25-27.67-11.83l-2.62,3.3v.54c-3.24-13.17-20.33-13.65-28.93-4.26,1.45.11,2.55-1.15,4.04-1.66,5.96-2.04,14.11-1.68,16.66,5.08,2.05,5.46-.04,10.5-2.2,15.5-6.9,15.96-25.08,44.88-25,61.28.07,13.8,11.08,22.95,23.56,14.42l4.43-4.13v6.14h11.41c-2.78-2.47-3.28-5.38-3.53-8.97-1.8-26.14,1.39-54.3.01-80.65-.04-.47-.1-.92-.17-1.37,4.34-7.57,17.5-12.24,20.65-1.14.48,1.71.88,4.25,1,6.01,1.87,26.85-1.41,55.78.02,82.85-.01.63-.05,1.28-.33,1.86-.45.9-1.36.66-1.44,1.41h11.41l-1.34-2.39c-1.17-26.91,1.64-55.25.04-82ZM157.19,171.96c-.42,1.46-4.9,3.81-6.47,4.06-8.64,1.38-12.23-6.01-13.22-13.31-2.47-18.19,10.69-42.65,18.3-59.19.31-.67.72-2.1,1.39-2.34v70.78Z"/>
    <path d="M203.23,180.95h11.41c0-.54-1.32-1.31-1.32-1.53v-100.8c-.32-.4-.45-.57-1-.58-.63-.01-7.44,1.78-8.41,2.14-.44.16-.83.17-1.11.64,1.51.68,2.19,2.31,2.21,3.92l-.35,94.36-1.42,1.86Z"/>
    <path d="M208.71,72.74c7.26.24,6.72-11.63-1.21-10.02-5.44,1.11-5.09,9.81,1.21,10.02Z"/>
    <path d="M40.42,72.74c7.26.24,6.72-11.63-1.21-10.02-5.44,1.11-5.09,9.81,1.21,10.02Z"/>
    <path d="M56.46,72.74c7.26.24,6.72-11.63-1.21-10.02-5.44,1.11-5.09,9.81,1.21,10.02Z"/>
    <path d="M72.5,72.74c7.26.24,6.72-11.63-1.21-10.02-5.44,1.11-5.09,9.81,1.21,10.02Z"/>
  </g>
  <rect x="84.86" y="66.73" width="108.32" height="1.85"/>
</svg>